<svg xmlns="http://www.w3.org/2000/svg" height="48" viewBox="0 96 960 960" width="48"><path d="M480 807q-78 0-131.5-53.5T295 622q0-78 53.5-131.5T480 437q78 0 131.5 53.5T665 622q0 78-53.5 131.5T480 807Zm0-60q50 0 85-35t35-85q0-50-35-85t-85-35q-50 0-85 35t-35 85q0 50 35 85t85 35Zm173-263q-10 0-17.5-7.5T628 459q0-10 7.5-17.5T653 434q10 0 17.5 7.5T678 459q0 10-7.5 17.5T653 484ZM248 864q-51 0-85-34t-34-85V438q0-51 34-85t85-34h464q51 0 85 34t34 85v307q0 51-34 85t-85 34H248Zm0-60h464q24 0 42-18t18-42V438q0-24-18-42t-42-18H248q-24 0-42 18t-18 42v307q0 24 18 42t42 18ZM248 390q-24 0-42 18t-18 42v307q0 24 18 42t42 18q-24 0-42-18t-18-42V450q0-24 18-42t42-18Zm491 36q10 0 17.5 7.5T764 451q0 10-7.5 17.5T739 476h-10q-10 0-17.5-7.5T704 451q0-10 7.5-17.5T729 426h10Z"/></svg>
