<svg xmlns="http://www.w3.org/2000/svg" height="48" viewBox="0 96 960 960" width="48"><path d="M255 942q-110-14-182.5-95.5T0 654q6 1 18.5 1t24.5-1q74-7 132.5-43.5T233 511q-70-2-124-44.5T51 351q21 4 42 4 29 0 56-8-36-14-62-44.5T48 221q0-21 6-40 76 83 173 132.5T424 366q-4-17-6-34t-2-34q0-63 43.5-106.5T564 148q64 0 107 47 46-9 86-33-15 48-54 75 40-4 80-20-18 42-58 68 2 19 2 35 0 101-35.5 192.5T628 710.5Q561 776 477 808.5 393 841 297 841q-75 0-142-20 87 2 172-25.5T473 737q-68-1-123-41.5T282 586q22 4 42 4 30 0 58-8-70-14-117-69.5T216 386v-2q21 11 45.5 13.5T310 403q-38-25-61-64.5T226 255q0-38 10-72 71 84 169 133.5T619 377q-9-31-9-63 0-54 27.5-100.5T708 140q60-51 145-51 79 0 136 57 62-12 116-44-22 68-88 104 53-6 106-28-30 64-85 111t-122 70q2 14 3 30 0 86-25 166.5T781 771.5q-51 75-123.5 126T508 969q-84 34-174 34-94 0-179-34Z"/></svg>
